<?xml version="1.0" encoding="utf-8"?>
<!-- Generator: Adobe Illustrator 14.0.0, SVG Export Plug-In . SVG Version: 6.00 Build 43363)  -->
<!DOCTYPE svg PUBLIC "-//W3C//DTD SVG 1.1//EN" "http://www.w3.org/Graphics/SVG/1.1/DTD/svg11.dtd">
<svg version="1.1" id="Layer_1" xmlns="http://www.w3.org/2000/svg" xmlns:xlink="http://www.w3.org/1999/xlink" x="0px" y="0px"
	 width="170px" height="170px" viewBox="0 0 170 170" enable-background="new 0 0 170 170" xml:space="preserve">
<g>
	<g>
		<path fill-rule="evenodd" clip-rule="evenodd" fill="#FFFFFF" d="M169.988,90.451c-1.175-9.383-5.615-20.369-10.539-27.983
			c-1.764-2.729-3.79-5.554-7.995-4.361c1.386,5.45,5.441,10.318,7.632,16.717c6.912,20.191,2.035,45.915-7.995,60.327
			c4.585,1.321,6.425-1.319,8.358-4.361c4.734-7.444,9.251-17.726,10.539-27.982c0,22.41,0,44.821,0,67.231
			c-56.693,0-113.384,0-170.079,0c0-56.693,0-113.384,0-170.079c56.694,0,113.384,0,170.079,0
			C169.988,30.124,169.988,60.288,169.988,90.451z M31.89,28.67c1.002,13.089-1.53,26.202-0.363,37.068
			c-2.633,1.97-6.518,2.689-9.085,4.725c-1.573-2.257-7.123-2.914-10.176-1.454c-0.862,1.362,0.803,1.733,0.727,3.271
			c-0.072,1.463-1.557,2.75-1.454,4.361c0.142,2.231,1.965,2.803,2.181,5.087c-1.804,2.921-4.741,4.708-5.452,8.722
			c-2.771-0.228-4.29,0.798-5.451,2.181c-0.387,3.9,2.441,4.585,3.998,6.541c-0.892,3.603,3.213,5.234,4.361,7.995
			c0.37,3.132-2.756,5.246-3.271,7.996c-0.929,4.958,3.772,10.084,6.178,11.992c5.558,0.979,9.557-2.782,14.537-2.907
			c6.698-0.169,15.394,3.827,23.985,5.814c34.664,8.017,79.536,4.519,81.769-31.254c1.04-16.666-10.462-23.745-20.715-30.89
			c0.112-1.324-0.058-2.365-0.363-3.271c-4.841-0.248-10.144-0.032-14.174-1.09c0-2.181,0-4.361,0-6.542
			c-2.726-5.27-11.844-4.146-18.534-5.452c-0.733-1.318-1.337-2.756-2.908-3.634c-7.282-4.072-23.216-1.938-31.254-0.364
			c-0.195-6.346-1.429-11.654-1.454-18.17C42.218,27.217,35.406,26.969,31.89,28.67z M138.008,124.249
			c3.252,0.958,5.012-1.131,6.542-3.634c6.583-10.771,9.697-25.845,3.997-39.613c-1.97-4.759-4.981-12.809-10.539-11.629
			C148.497,82.7,148.35,110.895,138.008,124.249z"/>
		<path fill-rule="evenodd" clip-rule="evenodd" d="M44.973,29.397c0.025,6.517,1.258,11.825,1.454,18.17
			c8.038-1.575,23.972-3.708,31.254,0.364c1.57,0.878,2.174,2.316,2.908,3.634c6.69,1.306,15.808,0.182,18.534,5.452
			c0,2.18,0,4.361,0,6.542c4.03,1.058,9.333,0.842,14.174,1.09c0.306,0.906,0.476,1.947,0.363,3.271
			c10.253,7.145,21.755,14.224,20.715,30.89c-2.233,35.772-47.105,39.271-81.769,31.254c-8.591-1.987-17.288-5.983-23.985-5.814
			c-4.98,0.125-8.979,3.887-14.537,2.907c-2.406-1.908-7.107-7.034-6.178-11.992c0.515-2.75,3.641-4.864,3.271-7.996
			c-1.148-2.761-5.253-4.393-4.361-7.995c-1.556-1.956-4.385-2.641-3.998-6.541c1.161-1.383,2.68-2.408,5.451-2.181
			c0.71-4.014,3.647-5.801,5.452-8.722c-0.215-2.284-2.039-2.856-2.181-5.087c-0.103-1.611,1.382-2.898,1.454-4.361
			c0.076-1.538-1.589-1.908-0.727-3.271c3.053-1.46,8.603-0.804,10.176,1.454c2.568-2.036,6.452-2.754,9.085-4.725
			C30.36,54.872,32.892,41.76,31.89,28.67C35.406,26.969,42.218,27.217,44.973,29.397z M35.161,31.214c0,7.147,0,14.294,0,21.441
			c3.157-0.356,5.841-1.185,8.722-1.817c-0.248-7.021-1.555-12.982-1.817-19.988C40.01,29.879,37.004,30.792,35.161,31.214z
			 M63.144,49.021c-3.84,0.017-10.5,0.378-13.446,1.817c-1.382,0.675-2.176,2.906-3.634,3.634c-4.71,2.35-10.021,0.605-11.266,4.361
			c-1.203,3.627,0.814,6.966,0.727,9.812c-4.566,2.46-9.681,4.372-12.72,8.359c-0.189-1.749-0.774-3.102-1.09-4.725
			c-1.462-0.476-2.93-0.946-5.088-0.727c0.165,1.929-0.34,5.171-1.454,6.905c2.066,0.478,2.827,2.261,4.361,3.271
			c-2.333,4.208-6.79,6.293-7.632,11.993c-2.293,0.009-4.664-0.061-5.088,1.817c1.518,1.229,4.083-0.715,5.451,0.363
			c-0.354,6.897,4.067,10.953,6.178,14.174c-2.012-0.195-3.146,0.488-4.361,1.09c0.902,4.536-2.977,4.292-2.544,8.358
			c5.54,2.604,9.794-3.621,13.81-3.997c2.082-0.195,7.39,1.82,11.266,2.907c3.749,1.051,7.636,2.447,10.902,3.271
			c31.068,7.825,77.49,8.049,82.859-24.712c-5.064,0.991-10.119,1.993-15.627,2.544c-0.773,5.04-2.044,9.584-4.724,12.719
			c1.267-4.063,3.045-7.614,3.271-12.719c-10.935,1.217-25.114,1.682-36.342,0.363c12.506-0.335,25.661-0.021,36.705-1.817
			c0.695-6.027-1.681-10.916-1.817-14.9c2.585,3.593,3.016,9.34,3.635,14.9c5.288-1.374,11.581-1.744,14.899-5.088
			c-1.461-13.802-11.85-18.677-20.715-25.076c-18.509-1.681-37.01,2.825-55.966,0c15.084-0.058,29.404-0.881,41.793-3.634
			c0-2.544,0-5.088,0-7.632c-11.78-3.051-24.89-0.752-37.795-2.18c7.209-0.302,14.75-0.271,20.352-2.181
			C75.744,49.601,69.016,48.996,63.144,49.021z"/>
		<path fill-rule="evenodd" clip-rule="evenodd" fill="#FFFFFF" d="M42.066,30.851c0.263,7.006,1.57,12.967,1.817,19.988
			c-2.881,0.632-5.565,1.461-8.722,1.817c0-7.147,0-14.294,0-21.441C37.004,30.792,40.01,29.879,42.066,30.851z"/>
		<path fill-rule="evenodd" clip-rule="evenodd" d="M88.219,59.561c-0.422-0.059-0.646,0.081-0.727,0.364
			C82.757,59.437,88.854,54.204,88.219,59.561z"/>
		<path fill-rule="evenodd" clip-rule="evenodd" d="M78.771,58.107c0.727,0,1.454,0,2.181,0c0,0.727,0,1.454,0,2.181
			C79.305,60.48,78.579,59.753,78.771,58.107z"/>
		<path fill-rule="evenodd" clip-rule="evenodd" d="M169.988,90.451c0,4.119,0,8.237,0,12.356
			c-1.288,10.257-5.805,20.538-10.539,27.982c-1.934,3.042-3.773,5.683-8.358,4.361c10.03-14.412,14.907-40.136,7.995-60.327
			c-2.19-6.399-6.246-11.268-7.632-16.717c4.205-1.193,6.231,1.633,7.995,4.361C164.373,70.082,168.813,81.068,169.988,90.451z"/>
		<path fill-rule="evenodd" clip-rule="evenodd" d="M74.047,58.834c0,0.484,0,0.969,0,1.454c-0.43,0.418-1.285,0.412-2.181,0.363
			c-0.305-0.421-0.479-0.974-0.363-1.817C71.988,58.315,73.561,58.315,74.047,58.834z"/>
		<path fill-rule="evenodd" clip-rule="evenodd" d="M51.151,59.197c2.505-1.888,2.11,3.594-0.363,1.454
			C50.818,60.076,50.613,59.265,51.151,59.197z"/>
		<path fill-rule="evenodd" clip-rule="evenodd" d="M59.873,58.834c0.327,1.064,0.327,1.117,0,2.181c-0.606,0-1.211,0-1.817,0
			c0.149-0.876-0.664-0.79-0.363-1.817C58.122,58.779,58.977,58.786,59.873,58.834z"/>
		<path fill-rule="evenodd" clip-rule="evenodd" d="M64.961,58.834c0.605,0,1.211,0,1.817,0c0.048,0.896,0.055,1.751-0.363,2.181
			c-0.652,0.046-0.767-0.445-1.454-0.364C64.961,60.045,64.961,59.439,64.961,58.834z"/>
		<path fill-rule="evenodd" clip-rule="evenodd" d="M138.008,69.373c5.558-1.179,8.569,6.87,10.539,11.629
			c5.7,13.768,2.586,28.842-3.997,39.613c-1.53,2.503-3.29,4.592-6.542,3.634C148.35,110.895,148.497,82.7,138.008,69.373z"/>
		<path fill-rule="evenodd" clip-rule="evenodd" fill="#FFFFFF" d="M68.232,80.275c0.296,2.26,0.535,4.35,0,6.542
			c-5.802,5.01-16.128,3.024-26.166,1.453c-3.345-0.523-15.214-1.339-14.9-4.724c0.183-1.973,8.591-4.271,9.449-4.361
			c4.491-0.468,11.132,0.481,16.717,0.727C58.613,80.145,63.54,80.498,68.232,80.275z M45.7,83.546
			c-0.478-0.048-2.629-0.055-1.454,0.363c0.969,0,1.938,0,2.907,0c2.988,0.646,6.684,0.585,9.813,1.09
			c0.141,1.313,0.482,2.425,1.09,3.271c0.045-1.499-0.631-2.275-0.363-3.998c0.896-0.215,2.82-1.271,2.181-1.817
			C56.724,85.191,50.785,83.115,45.7,83.546z"/>
		<path fill-rule="evenodd" clip-rule="evenodd" d="M15.9,90.451c0.269-0.652,2.117-2.813,3.634-2.907
			c7.505-0.471,9.674,17.517,3.271,18.897C15.425,108.033,13.947,95.191,15.9,90.451z M19.897,103.897
			c3.993-1.222,4.927-10.488,1.817-13.446C17.73,91.62,16.717,100.985,19.897,103.897z"/>
		<path fill-rule="evenodd" clip-rule="evenodd" fill="#FFFFFF" d="M21.715,90.451c3.109,2.958,2.176,12.225-1.817,13.446
			C16.717,100.985,17.73,91.62,21.715,90.451z"/>
		<path fill-rule="evenodd" clip-rule="evenodd" fill="#FFFFFF" d="M38.431,91.178c3.89,3.567,2.908,15.532-3.634,15.264
			C31.011,102.658,31.944,91.169,38.431,91.178z"/>
		<path fill-rule="evenodd" clip-rule="evenodd" d="M123.108,92.269c1.258-0.255,1.303,1.273,0.727,1.816
			C123.095,93.82,122.35,92.992,123.108,92.269z"/>
		<path fill-rule="evenodd" clip-rule="evenodd" fill="#FFFFFF" d="M61.69,92.995c4.556,5.536,1.954,17.894-7.632,15.99
			C47.815,104.374,50.815,89.191,61.69,92.995z"/>
		<path fill-rule="evenodd" clip-rule="evenodd" d="M116.929,93.358c0.966,0.004,2.076-0.137,2.544,0.363
			c0.048,0.896,0.056,1.751-0.363,2.181c-0.605,0-1.211,0-1.817,0C116.793,95.434,116.933,94.324,116.929,93.358z"/>
		<path fill-rule="evenodd" clip-rule="evenodd" d="M108.571,94.449c0.363,0,0.727,0,1.09,0c0.306,0.422,0.479,0.974,0.364,1.816
			c-0.652-0.046-0.767,0.445-1.454,0.363C108.074,96.165,108.074,94.913,108.571,94.449z"/>
		<path fill-rule="evenodd" clip-rule="evenodd" d="M101.666,95.176c1.219-0.25,1.329,0.609,1.454,1.453
			c-0.422,0.306-0.975,0.479-1.817,0.364C101.187,96.15,101.361,95.598,101.666,95.176z"/>
		<path fill-rule="evenodd" clip-rule="evenodd" d="M94.398,95.539c0.651-0.046,0.767,0.445,1.453,0.363
			c0.169,1.138-0.315,1.622-1.453,1.454C93.931,96.879,93.931,96.017,94.398,95.539z"/>
		<path fill-rule="evenodd" clip-rule="evenodd" d="M82.042,96.266c0.116,0.843-0.059,1.396-0.364,1.817
			c-1.294,0.083-1.9-0.522-1.817-1.817C80.326,95.769,81.577,95.769,82.042,96.266z"/>
		<path fill-rule="evenodd" clip-rule="evenodd" d="M87.13,95.902c0.605,0,1.211,0,1.817,0c0.048,0.896,0.055,1.751-0.364,2.181
			c-0.651,0.046-0.767-0.445-1.453-0.363C87.13,97.114,87.13,96.508,87.13,95.902z"/>
		<path fill-rule="evenodd" clip-rule="evenodd" d="M73.32,96.266c0.484,0,0.969,0,1.454,0c0,0.484,0,0.97,0,1.454
			C73.522,98.002,73.037,97.518,73.32,96.266z"/>
		<path fill-rule="evenodd" clip-rule="evenodd" d="M32.254,89.361c-1.897-0.769-3.847-1.483-6.178-1.817
			c-1.078-1.951-2.399-3.658-2.181-6.905c9.873-8.087,30.425-1.361,46.154-3.634c1.152,3.419,2.509,7.855,1.454,12.356
			c-2.166,1.59-5.032,2.478-7.995,3.271c6.788,4.807,2.806,23.807-8.722,18.534c-6.097-2.788-9.553-12.52-4.361-19.261
			c-3.581-0.054-6.573-0.696-9.813-1.091c3.671,3.078,4.85,17.378-2.181,18.171C29.584,109.983,27.487,93.182,32.254,89.361z
			 M53.332,79.912c-5.585-0.246-12.227-1.195-16.717-0.727c-0.857,0.089-9.266,2.388-9.449,4.361
			c-0.314,3.385,11.555,4.201,14.9,4.724c10.038,1.571,20.364,3.557,26.166-1.453c0.535-2.192,0.296-4.282,0-6.542
			C63.54,80.498,58.613,80.145,53.332,79.912z M34.798,106.441c6.542,0.269,7.524-11.696,3.634-15.264
			C31.944,91.169,31.011,102.658,34.798,106.441z M54.058,108.985c9.586,1.903,12.188-10.454,7.632-15.99
			C50.815,89.191,47.815,104.374,54.058,108.985z"/>
		<path fill-rule="evenodd" clip-rule="evenodd" fill="#FFFFFF" d="M78.044,52.292c-5.601,1.91-13.143,1.879-20.352,2.181
			c12.906,1.428,26.015-0.871,37.795,2.18c0,2.544,0,5.088,0,7.632c-12.389,2.753-26.708,3.576-41.793,3.634
			c18.956,2.825,37.457-1.681,55.966,0c8.865,6.398,19.254,11.274,20.715,25.076c-3.318,3.344-9.611,3.714-14.899,5.088
			c-0.619-5.56-1.05-11.307-3.635-14.9c0.137,3.984,2.513,8.873,1.817,14.9C102.615,99.88,89.46,99.565,76.954,99.9
			c11.228,1.318,25.407,0.854,36.342-0.363c-0.226,5.104-2.004,8.656-3.271,12.719c2.68-3.135,3.95-7.679,4.724-12.719
			c5.508-0.551,10.563-1.553,15.627-2.544c-5.369,32.761-51.791,32.537-82.859,24.712c-3.266-0.823-7.154-2.22-10.902-3.271
			c-3.876-1.087-9.184-3.103-11.266-2.907c-4.016,0.376-8.27,6.601-13.81,3.997c-0.433-4.066,3.446-3.822,2.544-8.358
			c1.215-0.602,2.349-1.285,4.361-1.09c-2.111-3.221-6.532-7.276-6.178-14.174c-1.368-1.078-3.933,0.865-5.451-0.363
			c0.424-1.878,2.795-1.809,5.088-1.817c0.842-5.699,5.299-7.784,7.632-11.993c-1.534-1.01-2.295-2.792-4.361-3.271
			c1.113-1.734,1.619-4.976,1.454-6.905c2.158-0.22,3.625,0.251,5.088,0.727c0.315,1.623,0.9,2.976,1.09,4.725
			c3.039-3.987,8.153-5.899,12.72-8.359c0.087-2.846-1.929-6.185-0.727-9.812c1.245-3.756,6.556-2.011,11.266-4.361
			c1.458-0.728,2.252-2.959,3.634-3.634c2.947-1.439,9.606-1.8,13.446-1.817C69.016,48.996,75.744,49.601,78.044,52.292z
			 M38.431,108.985c7.031-0.793,5.852-15.093,2.181-18.171c3.24,0.395,6.231,1.037,9.813,1.091
			c-5.192,6.741-1.736,16.473,4.361,19.261c11.528,5.272,15.51-13.728,8.722-18.534c2.963-0.793,5.83-1.681,7.995-3.271
			c1.056-4.501-0.302-8.937-1.454-12.356c-15.729,2.273-36.281-4.453-46.154,3.634c-0.218,3.247,1.103,4.954,2.181,6.905
			c2.331,0.334,4.281,1.049,6.178,1.817C27.487,93.182,29.584,109.983,38.431,108.985z M87.493,59.924
			c0.08-0.283,0.305-0.422,0.727-0.364C88.854,54.204,82.757,59.437,87.493,59.924z M80.951,60.288c0-0.727,0-1.454,0-2.181
			c-0.727,0-1.454,0-2.181,0C78.579,59.753,79.305,60.48,80.951,60.288z M71.503,58.834c-0.116,0.843,0.058,1.396,0.363,1.817
			c0.896,0.048,1.751,0.055,2.181-0.363c0-0.484,0-0.969,0-1.454C73.561,58.315,71.988,58.315,71.503,58.834z M50.788,60.651
			c2.473,2.14,2.869-3.341,0.363-1.454C50.613,59.265,50.818,60.076,50.788,60.651z M57.693,59.197
			c-0.3,1.027,0.512,0.941,0.363,1.817c0.606,0,1.211,0,1.817,0c0.327-1.064,0.327-1.117,0-2.181
			C58.977,58.786,58.122,58.779,57.693,59.197z M64.961,60.651c0.687-0.081,0.802,0.41,1.454,0.364
			c0.418-0.43,0.411-1.285,0.363-2.181c-0.605,0-1.211,0-1.817,0C64.961,59.439,64.961,60.045,64.961,60.651z M22.804,106.441
			c6.403-1.381,4.234-19.368-3.271-18.897c-1.518,0.095-3.365,2.255-3.634,2.907C13.947,95.191,15.425,108.033,22.804,106.441z
			 M123.835,94.085c0.576-0.543,0.531-2.071-0.727-1.816C122.35,92.992,123.095,93.82,123.835,94.085z M117.293,95.902
			c0.606,0,1.212,0,1.817,0c0.419-0.43,0.411-1.284,0.363-2.181c-0.468-0.5-1.578-0.359-2.544-0.363
			C116.933,94.324,116.793,95.434,117.293,95.902z M108.571,96.629c0.688,0.082,0.802-0.409,1.454-0.363
			c0.115-0.843-0.059-1.395-0.364-1.816c-0.363,0-0.727,0-1.09,0C108.074,94.913,108.074,96.165,108.571,96.629z M101.302,96.993
			c0.843,0.115,1.396-0.059,1.817-0.364c-0.125-0.844-0.235-1.703-1.454-1.453C101.361,95.598,101.187,96.15,101.302,96.993z
			 M94.398,97.356c1.138,0.168,1.622-0.316,1.453-1.454c-0.687,0.082-0.802-0.409-1.453-0.363
			C93.931,96.017,93.931,96.879,94.398,97.356z M79.861,96.266c-0.083,1.295,0.522,1.9,1.817,1.817
			c0.305-0.422,0.479-0.975,0.364-1.817C81.577,95.769,80.326,95.769,79.861,96.266z M87.13,97.72
			c0.687-0.082,0.802,0.409,1.453,0.363c0.419-0.43,0.412-1.284,0.364-2.181c-0.606,0-1.212,0-1.817,0
			C87.13,96.508,87.13,97.114,87.13,97.72z M74.773,97.72c0-0.484,0-0.97,0-1.454c-0.484,0-0.969,0-1.454,0
			C73.037,97.518,73.522,98.002,74.773,97.72z"/>
		<path fill-rule="evenodd" clip-rule="evenodd" d="M59.873,82.456c0.64,0.546-1.285,1.602-2.181,1.817
			c-0.268,1.722,0.409,2.499,0.363,3.998c-0.608-0.846-0.949-1.958-1.09-3.271c-3.129-0.505-6.824-0.444-9.813-1.09
			c-0.969,0-1.938,0-2.907,0c-1.176-0.418,0.976-0.411,1.454-0.363C50.785,83.115,56.724,85.191,59.873,82.456z"/>
	</g>
</g>
</svg>
